<mxfile host="app.diagrams.net" agent="Mozilla/5.0 (X11; Linux x86_64) AppleWebKit/537.36 (KHTML, like Gecko) Chrome/126.0.0.0 Safari/537.36" version="24.7.7">
  <diagram name="Page-1" id="tEH3crVplecIQbQHGZhr">
    <mxGraphModel dx="989" dy="1673" grid="1" gridSize="10" guides="1" tooltips="1" connect="1" arrows="1" fold="1" page="1" pageScale="1" pageWidth="850" pageHeight="1100" math="0" shadow="0">
      <root>
        <mxCell id="0" />
        <mxCell id="1" parent="0" />
        <mxCell id="4mwLRk9rZ4MO9JZMdo6K-1" value="Book" style="swimlane;fontStyle=0;childLayout=stackLayout;horizontal=1;startSize=26;fillColor=none;horizontalStack=0;resizeParent=1;resizeParentMax=0;resizeLast=0;collapsible=1;marginBottom=0;whiteSpace=wrap;html=1;" vertex="1" parent="1">
          <mxGeometry x="40" y="-288" width="140" height="140" as="geometry" />
        </mxCell>
        <mxCell id="4mwLRk9rZ4MO9JZMdo6K-2" value="+ title: String" style="text;strokeColor=none;fillColor=none;align=left;verticalAlign=top;spacingLeft=4;spacingRight=4;overflow=hidden;rotatable=0;points=[[0,0.5],[1,0.5]];portConstraint=eastwest;whiteSpace=wrap;html=1;" vertex="1" parent="4mwLRk9rZ4MO9JZMdo6K-1">
          <mxGeometry y="26" width="140" height="26" as="geometry" />
        </mxCell>
        <mxCell id="4mwLRk9rZ4MO9JZMdo6K-3" value="+ isbn: String" style="text;strokeColor=none;fillColor=none;align=left;verticalAlign=top;spacingLeft=4;spacingRight=4;overflow=hidden;rotatable=0;points=[[0,0.5],[1,0.5]];portConstraint=eastwest;whiteSpace=wrap;html=1;" vertex="1" parent="4mwLRk9rZ4MO9JZMdo6K-1">
          <mxGeometry y="52" width="140" height="26" as="geometry" />
        </mxCell>
        <mxCell id="4mwLRk9rZ4MO9JZMdo6K-5" value="+ author: String" style="text;strokeColor=none;fillColor=none;align=left;verticalAlign=top;spacingLeft=4;spacingRight=4;overflow=hidden;rotatable=0;points=[[0,0.5],[1,0.5]];portConstraint=eastwest;whiteSpace=wrap;html=1;" vertex="1" parent="4mwLRk9rZ4MO9JZMdo6K-1">
          <mxGeometry y="78" width="140" height="26" as="geometry" />
        </mxCell>
        <mxCell id="4mwLRk9rZ4MO9JZMdo6K-4" value="+ publishedDate: Date" style="text;strokeColor=none;fillColor=none;align=left;verticalAlign=top;spacingLeft=4;spacingRight=4;overflow=hidden;rotatable=0;points=[[0,0.5],[1,0.5]];portConstraint=eastwest;whiteSpace=wrap;html=1;" vertex="1" parent="4mwLRk9rZ4MO9JZMdo6K-1">
          <mxGeometry y="104" width="140" height="36" as="geometry" />
        </mxCell>
        <mxCell id="4mwLRk9rZ4MO9JZMdo6K-6" value="Author" style="swimlane;fontStyle=0;childLayout=stackLayout;horizontal=1;startSize=26;fillColor=none;horizontalStack=0;resizeParent=1;resizeParentMax=0;resizeLast=0;collapsible=1;marginBottom=0;whiteSpace=wrap;html=1;" vertex="1" parent="1">
          <mxGeometry x="230" y="-288" width="160" height="168" as="geometry" />
        </mxCell>
        <mxCell id="4mwLRk9rZ4MO9JZMdo6K-7" value="+ name: String&lt;div&gt;+ id: String&lt;/div&gt;&lt;div&gt;&lt;br&gt;&lt;/div&gt;&lt;div&gt;&lt;br&gt;&lt;/div&gt;&lt;div&gt;&lt;br&gt;&lt;/div&gt;" style="text;strokeColor=none;fillColor=none;align=left;verticalAlign=top;spacingLeft=4;spacingRight=4;overflow=hidden;rotatable=0;points=[[0,0.5],[1,0.5]];portConstraint=eastwest;whiteSpace=wrap;html=1;" vertex="1" parent="4mwLRk9rZ4MO9JZMdo6K-6">
          <mxGeometry y="26" width="160" height="34" as="geometry" />
        </mxCell>
        <mxCell id="4mwLRk9rZ4MO9JZMdo6K-8" value="- age: int" style="text;strokeColor=none;fillColor=none;align=left;verticalAlign=top;spacingLeft=4;spacingRight=4;overflow=hidden;rotatable=0;points=[[0,0.5],[1,0.5]];portConstraint=eastwest;whiteSpace=wrap;html=1;" vertex="1" parent="4mwLRk9rZ4MO9JZMdo6K-6">
          <mxGeometry y="60" width="160" height="26" as="geometry" />
        </mxCell>
        <mxCell id="4mwLRk9rZ4MO9JZMdo6K-11" value="- age: int" style="text;strokeColor=none;fillColor=none;align=left;verticalAlign=top;spacingLeft=4;spacingRight=4;overflow=hidden;rotatable=0;points=[[0,0.5],[1,0.5]];portConstraint=eastwest;whiteSpace=wrap;html=1;" vertex="1" parent="4mwLRk9rZ4MO9JZMdo6K-6">
          <mxGeometry y="86" width="160" height="26" as="geometry" />
        </mxCell>
        <mxCell id="4mwLRk9rZ4MO9JZMdo6K-9" value="+ List&amp;lt;Book&amp;gt; publishedBooks" style="text;strokeColor=none;fillColor=none;align=left;verticalAlign=top;spacingLeft=4;spacingRight=4;overflow=hidden;rotatable=0;points=[[0,0.5],[1,0.5]];portConstraint=eastwest;whiteSpace=wrap;html=1;" vertex="1" parent="4mwLRk9rZ4MO9JZMdo6K-6">
          <mxGeometry y="112" width="160" height="56" as="geometry" />
        </mxCell>
        <mxCell id="4mwLRk9rZ4MO9JZMdo6K-12" value="SubscribedBook" style="swimlane;fontStyle=0;childLayout=stackLayout;horizontal=1;startSize=26;fillColor=none;horizontalStack=0;resizeParent=1;resizeParentMax=0;resizeLast=0;collapsible=1;marginBottom=0;whiteSpace=wrap;html=1;" vertex="1" parent="1">
          <mxGeometry x="480" y="-300" width="140" height="212" as="geometry" />
        </mxCell>
        <mxCell id="4mwLRk9rZ4MO9JZMdo6K-13" value="+ startDate: Date" style="text;strokeColor=none;fillColor=none;align=left;verticalAlign=top;spacingLeft=4;spacingRight=4;overflow=hidden;rotatable=0;points=[[0,0.5],[1,0.5]];portConstraint=eastwest;whiteSpace=wrap;html=1;" vertex="1" parent="4mwLRk9rZ4MO9JZMdo6K-12">
          <mxGeometry y="26" width="140" height="26" as="geometry" />
        </mxCell>
        <mxCell id="4mwLRk9rZ4MO9JZMdo6K-14" value="+ endDate: Date" style="text;strokeColor=none;fillColor=none;align=left;verticalAlign=top;spacingLeft=4;spacingRight=4;overflow=hidden;rotatable=0;points=[[0,0.5],[1,0.5]];portConstraint=eastwest;whiteSpace=wrap;html=1;" vertex="1" parent="4mwLRk9rZ4MO9JZMdo6K-12">
          <mxGeometry y="52" width="140" height="26" as="geometry" />
        </mxCell>
        <mxCell id="4mwLRk9rZ4MO9JZMdo6K-16" value="+ isbn: String" style="text;strokeColor=none;fillColor=none;align=left;verticalAlign=top;spacingLeft=4;spacingRight=4;overflow=hidden;rotatable=0;points=[[0,0.5],[1,0.5]];portConstraint=eastwest;whiteSpace=wrap;html=1;" vertex="1" parent="4mwLRk9rZ4MO9JZMdo6K-12">
          <mxGeometry y="78" width="140" height="26" as="geometry" />
        </mxCell>
        <mxCell id="4mwLRk9rZ4MO9JZMdo6K-17" value="+ status: BookStatus" style="text;strokeColor=none;fillColor=none;align=left;verticalAlign=top;spacingLeft=4;spacingRight=4;overflow=hidden;rotatable=0;points=[[0,0.5],[1,0.5]];portConstraint=eastwest;whiteSpace=wrap;html=1;" vertex="1" parent="4mwLRk9rZ4MO9JZMdo6K-12">
          <mxGeometry y="104" width="140" height="26" as="geometry" />
        </mxCell>
        <mxCell id="4mwLRk9rZ4MO9JZMdo6K-15" value="&lt;span style=&quot;color: rgb(0, 0, 0); font-family: Helvetica; font-size: 12px; font-style: normal; font-variant-ligatures: normal; font-variant-caps: normal; font-weight: 400; letter-spacing: normal; orphans: 2; text-align: left; text-indent: 0px; text-transform: none; widows: 2; word-spacing: 0px; -webkit-text-stroke-width: 0px; white-space: normal; background-color: rgb(251, 251, 251); text-decoration-thickness: initial; text-decoration-style: initial; text-decoration-color: initial; display: inline !important; float: none;&quot;&gt;+ issuedBy: Employee&lt;/span&gt;" style="text;strokeColor=none;fillColor=none;align=left;verticalAlign=top;spacingLeft=4;spacingRight=4;overflow=hidden;rotatable=0;points=[[0,0.5],[1,0.5]];portConstraint=eastwest;whiteSpace=wrap;html=1;" vertex="1" parent="4mwLRk9rZ4MO9JZMdo6K-12">
          <mxGeometry y="130" width="140" height="82" as="geometry" />
        </mxCell>
        <mxCell id="4mwLRk9rZ4MO9JZMdo6K-18" value="BookStatus - ENUM" style="swimlane;fontStyle=0;childLayout=stackLayout;horizontal=1;startSize=26;fillColor=none;horizontalStack=0;resizeParent=1;resizeParentMax=0;resizeLast=0;collapsible=1;marginBottom=0;whiteSpace=wrap;html=1;" vertex="1" parent="1">
          <mxGeometry x="690" y="-270" width="140" height="104" as="geometry" />
        </mxCell>
        <mxCell id="4mwLRk9rZ4MO9JZMdo6K-19" value="+ ISSUED" style="text;strokeColor=none;fillColor=none;align=left;verticalAlign=top;spacingLeft=4;spacingRight=4;overflow=hidden;rotatable=0;points=[[0,0.5],[1,0.5]];portConstraint=eastwest;whiteSpace=wrap;html=1;" vertex="1" parent="4mwLRk9rZ4MO9JZMdo6K-18">
          <mxGeometry y="26" width="140" height="26" as="geometry" />
        </mxCell>
        <mxCell id="4mwLRk9rZ4MO9JZMdo6K-20" value="+ PENALIZED" style="text;strokeColor=none;fillColor=none;align=left;verticalAlign=top;spacingLeft=4;spacingRight=4;overflow=hidden;rotatable=0;points=[[0,0.5],[1,0.5]];portConstraint=eastwest;whiteSpace=wrap;html=1;" vertex="1" parent="4mwLRk9rZ4MO9JZMdo6K-18">
          <mxGeometry y="52" width="140" height="26" as="geometry" />
        </mxCell>
        <mxCell id="4mwLRk9rZ4MO9JZMdo6K-21" value="+ RETURNED" style="text;strokeColor=none;fillColor=none;align=left;verticalAlign=top;spacingLeft=4;spacingRight=4;overflow=hidden;rotatable=0;points=[[0,0.5],[1,0.5]];portConstraint=eastwest;whiteSpace=wrap;html=1;" vertex="1" parent="4mwLRk9rZ4MO9JZMdo6K-18">
          <mxGeometry y="78" width="140" height="26" as="geometry" />
        </mxCell>
        <mxCell id="4mwLRk9rZ4MO9JZMdo6K-22" style="edgeStyle=orthogonalEdgeStyle;rounded=0;orthogonalLoop=1;jettySize=auto;html=1;exitX=1;exitY=0.5;exitDx=0;exitDy=0;entryX=0.004;entryY=0.908;entryDx=0;entryDy=0;entryPerimeter=0;" edge="1" parent="1" source="4mwLRk9rZ4MO9JZMdo6K-17" target="4mwLRk9rZ4MO9JZMdo6K-19">
          <mxGeometry relative="1" as="geometry" />
        </mxCell>
        <mxCell id="4mwLRk9rZ4MO9JZMdo6K-31" style="edgeStyle=orthogonalEdgeStyle;rounded=0;orthogonalLoop=1;jettySize=auto;html=1;" edge="1" parent="1" source="4mwLRk9rZ4MO9JZMdo6K-23">
          <mxGeometry relative="1" as="geometry">
            <mxPoint x="120" y="-140" as="targetPoint" />
          </mxGeometry>
        </mxCell>
        <mxCell id="4mwLRk9rZ4MO9JZMdo6K-23" value="User" style="swimlane;fontStyle=0;childLayout=stackLayout;horizontal=1;startSize=26;fillColor=none;horizontalStack=0;resizeParent=1;resizeParentMax=0;resizeLast=0;collapsible=1;marginBottom=0;whiteSpace=wrap;html=1;" vertex="1" parent="1">
          <mxGeometry x="30" y="-88" width="180" height="110" as="geometry" />
        </mxCell>
        <mxCell id="4mwLRk9rZ4MO9JZMdo6K-24" value="+ name: String" style="text;strokeColor=none;fillColor=none;align=left;verticalAlign=top;spacingLeft=4;spacingRight=4;overflow=hidden;rotatable=0;points=[[0,0.5],[1,0.5]];portConstraint=eastwest;whiteSpace=wrap;html=1;" vertex="1" parent="4mwLRk9rZ4MO9JZMdo6K-23">
          <mxGeometry y="26" width="180" height="26" as="geometry" />
        </mxCell>
        <mxCell id="4mwLRk9rZ4MO9JZMdo6K-25" value="+ id: String" style="text;strokeColor=none;fillColor=none;align=left;verticalAlign=top;spacingLeft=4;spacingRight=4;overflow=hidden;rotatable=0;points=[[0,0.5],[1,0.5]];portConstraint=eastwest;whiteSpace=wrap;html=1;" vertex="1" parent="4mwLRk9rZ4MO9JZMdo6K-23">
          <mxGeometry y="52" width="180" height="26" as="geometry" />
        </mxCell>
        <mxCell id="4mwLRk9rZ4MO9JZMdo6K-26" value="+ List&amp;lt;SubscribedBook&amp;gt; issued&lt;div&gt;&lt;br&gt;&lt;/div&gt;" style="text;strokeColor=none;fillColor=none;align=left;verticalAlign=top;spacingLeft=4;spacingRight=4;overflow=hidden;rotatable=0;points=[[0,0.5],[1,0.5]];portConstraint=eastwest;whiteSpace=wrap;html=1;" vertex="1" parent="4mwLRk9rZ4MO9JZMdo6K-23">
          <mxGeometry y="78" width="180" height="32" as="geometry" />
        </mxCell>
        <mxCell id="4mwLRk9rZ4MO9JZMdo6K-27" value="Employee" style="swimlane;fontStyle=0;childLayout=stackLayout;horizontal=1;startSize=26;fillColor=none;horizontalStack=0;resizeParent=1;resizeParentMax=0;resizeLast=0;collapsible=1;marginBottom=0;whiteSpace=wrap;html=1;" vertex="1" parent="1">
          <mxGeometry x="690" y="-104" width="140" height="104" as="geometry" />
        </mxCell>
        <mxCell id="4mwLRk9rZ4MO9JZMdo6K-28" value="+ id: String" style="text;strokeColor=none;fillColor=none;align=left;verticalAlign=top;spacingLeft=4;spacingRight=4;overflow=hidden;rotatable=0;points=[[0,0.5],[1,0.5]];portConstraint=eastwest;whiteSpace=wrap;html=1;" vertex="1" parent="4mwLRk9rZ4MO9JZMdo6K-27">
          <mxGeometry y="26" width="140" height="26" as="geometry" />
        </mxCell>
        <mxCell id="4mwLRk9rZ4MO9JZMdo6K-29" value="+ name: String" style="text;strokeColor=none;fillColor=none;align=left;verticalAlign=top;spacingLeft=4;spacingRight=4;overflow=hidden;rotatable=0;points=[[0,0.5],[1,0.5]];portConstraint=eastwest;whiteSpace=wrap;html=1;" vertex="1" parent="4mwLRk9rZ4MO9JZMdo6K-27">
          <mxGeometry y="52" width="140" height="26" as="geometry" />
        </mxCell>
        <mxCell id="4mwLRk9rZ4MO9JZMdo6K-30" value="+ mobile: String" style="text;strokeColor=none;fillColor=none;align=left;verticalAlign=top;spacingLeft=4;spacingRight=4;overflow=hidden;rotatable=0;points=[[0,0.5],[1,0.5]];portConstraint=eastwest;whiteSpace=wrap;html=1;" vertex="1" parent="4mwLRk9rZ4MO9JZMdo6K-27">
          <mxGeometry y="78" width="140" height="26" as="geometry" />
        </mxCell>
        <mxCell id="4mwLRk9rZ4MO9JZMdo6K-32" style="edgeStyle=orthogonalEdgeStyle;rounded=0;orthogonalLoop=1;jettySize=auto;html=1;entryX=0;entryY=0.5;entryDx=0;entryDy=0;" edge="1" parent="1" source="4mwLRk9rZ4MO9JZMdo6K-3" target="4mwLRk9rZ4MO9JZMdo6K-8">
          <mxGeometry relative="1" as="geometry" />
        </mxCell>
        <mxCell id="4mwLRk9rZ4MO9JZMdo6K-33" value="BookRepository" style="swimlane;fontStyle=1;align=center;verticalAlign=top;childLayout=stackLayout;horizontal=1;startSize=26;horizontalStack=0;resizeParent=1;resizeParentMax=0;resizeLast=0;collapsible=1;marginBottom=0;whiteSpace=wrap;html=1;" vertex="1" parent="1">
          <mxGeometry x="30" y="60" width="290" height="200" as="geometry" />
        </mxCell>
        <mxCell id="4mwLRk9rZ4MO9JZMdo6K-34" value="&lt;div&gt;+ Map&amp;lt;isbn,Pair&amp;lt;Book,Integer&amp;gt;&lt;/div&gt;&lt;div&gt;availableBooks&lt;/div&gt;&lt;div&gt;+ List&amp;lt;Author&amp;gt; availableAuthors&lt;/div&gt;" style="text;strokeColor=none;fillColor=none;align=left;verticalAlign=top;spacingLeft=4;spacingRight=4;overflow=hidden;rotatable=0;points=[[0,0.5],[1,0.5]];portConstraint=eastwest;whiteSpace=wrap;html=1;" vertex="1" parent="4mwLRk9rZ4MO9JZMdo6K-33">
          <mxGeometry y="26" width="290" height="54" as="geometry" />
        </mxCell>
        <mxCell id="4mwLRk9rZ4MO9JZMdo6K-35" value="" style="line;strokeWidth=1;fillColor=none;align=left;verticalAlign=middle;spacingTop=-1;spacingLeft=3;spacingRight=3;rotatable=0;labelPosition=right;points=[];portConstraint=eastwest;strokeColor=inherit;" vertex="1" parent="4mwLRk9rZ4MO9JZMdo6K-33">
          <mxGeometry y="80" width="290" height="8" as="geometry" />
        </mxCell>
        <mxCell id="4mwLRk9rZ4MO9JZMdo6K-36" value="+ addBook(Book): Book&lt;div&gt;+ getBookByTitle(String title): Book&lt;/div&gt;&lt;div&gt;+ getBookByAuthor(String author): List&amp;lt;Book&amp;gt;&lt;/div&gt;&lt;div&gt;+ addAuthor(Author author): Author&lt;/div&gt;&lt;div&gt;+ removeBook(String isbn)&lt;/div&gt;&lt;div&gt;+ removeAuthor(String id): Author&lt;/div&gt;" style="text;strokeColor=none;fillColor=none;align=left;verticalAlign=top;spacingLeft=4;spacingRight=4;overflow=hidden;rotatable=0;points=[[0,0.5],[1,0.5]];portConstraint=eastwest;whiteSpace=wrap;html=1;" vertex="1" parent="4mwLRk9rZ4MO9JZMdo6K-33">
          <mxGeometry y="88" width="290" height="112" as="geometry" />
        </mxCell>
        <mxCell id="4mwLRk9rZ4MO9JZMdo6K-37" value="UserRepository" style="swimlane;fontStyle=1;align=center;verticalAlign=top;childLayout=stackLayout;horizontal=1;startSize=26;horizontalStack=0;resizeParent=1;resizeParentMax=0;resizeLast=0;collapsible=1;marginBottom=0;whiteSpace=wrap;html=1;" vertex="1" parent="1">
          <mxGeometry x="370" y="60" width="270" height="110" as="geometry" />
        </mxCell>
        <mxCell id="4mwLRk9rZ4MO9JZMdo6K-38" value="+ Map&amp;lt;Integer,User&amp;gt; registeredUser" style="text;strokeColor=none;fillColor=none;align=left;verticalAlign=top;spacingLeft=4;spacingRight=4;overflow=hidden;rotatable=0;points=[[0,0.5],[1,0.5]];portConstraint=eastwest;whiteSpace=wrap;html=1;" vertex="1" parent="4mwLRk9rZ4MO9JZMdo6K-37">
          <mxGeometry y="26" width="270" height="26" as="geometry" />
        </mxCell>
        <mxCell id="4mwLRk9rZ4MO9JZMdo6K-39" value="" style="line;strokeWidth=1;fillColor=none;align=left;verticalAlign=middle;spacingTop=-1;spacingLeft=3;spacingRight=3;rotatable=0;labelPosition=right;points=[];portConstraint=eastwest;strokeColor=inherit;" vertex="1" parent="4mwLRk9rZ4MO9JZMdo6K-37">
          <mxGeometry y="52" width="270" height="8" as="geometry" />
        </mxCell>
        <mxCell id="4mwLRk9rZ4MO9JZMdo6K-40" value="+ saveUser(User): User&lt;div&gt;+ removeUser(User): User&lt;/div&gt;&lt;div&gt;&lt;br&gt;&lt;/div&gt;" style="text;strokeColor=none;fillColor=none;align=left;verticalAlign=top;spacingLeft=4;spacingRight=4;overflow=hidden;rotatable=0;points=[[0,0.5],[1,0.5]];portConstraint=eastwest;whiteSpace=wrap;html=1;" vertex="1" parent="4mwLRk9rZ4MO9JZMdo6K-37">
          <mxGeometry y="60" width="270" height="50" as="geometry" />
        </mxCell>
        <mxCell id="4mwLRk9rZ4MO9JZMdo6K-45" style="edgeStyle=orthogonalEdgeStyle;rounded=0;orthogonalLoop=1;jettySize=auto;html=1;entryX=0;entryY=0.5;entryDx=0;entryDy=0;" edge="1" parent="1" source="4mwLRk9rZ4MO9JZMdo6K-36" target="4mwLRk9rZ4MO9JZMdo6K-5">
          <mxGeometry relative="1" as="geometry" />
        </mxCell>
        <mxCell id="4mwLRk9rZ4MO9JZMdo6K-46" style="edgeStyle=orthogonalEdgeStyle;rounded=0;orthogonalLoop=1;jettySize=auto;html=1;entryX=0.466;entryY=1.043;entryDx=0;entryDy=0;entryPerimeter=0;" edge="1" parent="1" source="4mwLRk9rZ4MO9JZMdo6K-33" target="4mwLRk9rZ4MO9JZMdo6K-9">
          <mxGeometry relative="1" as="geometry">
            <Array as="points">
              <mxPoint x="270" y="-100" />
              <mxPoint x="305" y="-100" />
            </Array>
          </mxGeometry>
        </mxCell>
        <mxCell id="4mwLRk9rZ4MO9JZMdo6K-47" style="edgeStyle=orthogonalEdgeStyle;rounded=0;orthogonalLoop=1;jettySize=auto;html=1;entryX=1;entryY=0.5;entryDx=0;entryDy=0;" edge="1" parent="1" source="4mwLRk9rZ4MO9JZMdo6K-40" target="4mwLRk9rZ4MO9JZMdo6K-24">
          <mxGeometry relative="1" as="geometry">
            <Array as="points">
              <mxPoint x="340" y="145" />
              <mxPoint x="340" y="-49" />
            </Array>
          </mxGeometry>
        </mxCell>
        <mxCell id="4mwLRk9rZ4MO9JZMdo6K-48" style="edgeStyle=orthogonalEdgeStyle;rounded=0;orthogonalLoop=1;jettySize=auto;html=1;entryX=0.021;entryY=0.2;entryDx=0;entryDy=0;entryPerimeter=0;" edge="1" parent="1" source="4mwLRk9rZ4MO9JZMdo6K-25" target="4mwLRk9rZ4MO9JZMdo6K-15">
          <mxGeometry relative="1" as="geometry">
            <Array as="points">
              <mxPoint x="345" y="-23" />
              <mxPoint x="345" y="-100" />
              <mxPoint x="460" y="-100" />
              <mxPoint x="460" y="-154" />
            </Array>
          </mxGeometry>
        </mxCell>
        <mxCell id="4mwLRk9rZ4MO9JZMdo6K-54" style="edgeStyle=orthogonalEdgeStyle;rounded=0;orthogonalLoop=1;jettySize=auto;html=1;" edge="1" parent="1" source="4mwLRk9rZ4MO9JZMdo6K-49">
          <mxGeometry relative="1" as="geometry">
            <mxPoint x="590" y="180" as="targetPoint" />
          </mxGeometry>
        </mxCell>
        <mxCell id="4mwLRk9rZ4MO9JZMdo6K-49" value="LibraryService" style="swimlane;fontStyle=1;align=center;verticalAlign=top;childLayout=stackLayout;horizontal=1;startSize=26;horizontalStack=0;resizeParent=1;resizeParentMax=0;resizeLast=0;collapsible=1;marginBottom=0;whiteSpace=wrap;html=1;" vertex="1" parent="1">
          <mxGeometry x="390" y="230" width="430" height="248" as="geometry" />
        </mxCell>
        <mxCell id="4mwLRk9rZ4MO9JZMdo6K-50" value="+ UserRepository&lt;div&gt;+ BookRepository&lt;/div&gt;&lt;div&gt;&lt;br&gt;&lt;/div&gt;&lt;div&gt;+ addBook(Book): Book&lt;/div&gt;&lt;div&gt;+ getBookByTitle(String title): Book&lt;/div&gt;&lt;div&gt;+ getBookByAuthor(String author) : List&amp;lt;Book&amp;gt;&lt;/div&gt;&lt;div&gt;+ addAuthor(Author author): Author&lt;/div&gt;&lt;div&gt;+ removeBook(String isbn): Book&lt;/div&gt;&lt;div&gt;+ removeAuthor((String id): Author&lt;/div&gt;&lt;div&gt;+ registerUser(User user)&lt;/div&gt;&lt;div&gt;+ subscribeBook(String userId, String isbn)&lt;/div&gt;&lt;div&gt;+ unsubscribeBook(String userId, String isbn)&lt;/div&gt;&lt;div&gt;- calculateFine(SubscribedBook book)&lt;/div&gt;" style="text;strokeColor=none;fillColor=none;align=left;verticalAlign=top;spacingLeft=4;spacingRight=4;overflow=hidden;rotatable=0;points=[[0,0.5],[1,0.5]];portConstraint=eastwest;whiteSpace=wrap;html=1;" vertex="1" parent="4mwLRk9rZ4MO9JZMdo6K-49">
          <mxGeometry y="26" width="430" height="214" as="geometry" />
        </mxCell>
        <mxCell id="4mwLRk9rZ4MO9JZMdo6K-51" value="" style="line;strokeWidth=1;fillColor=none;align=left;verticalAlign=middle;spacingTop=-1;spacingLeft=3;spacingRight=3;rotatable=0;labelPosition=right;points=[];portConstraint=eastwest;strokeColor=inherit;" vertex="1" parent="4mwLRk9rZ4MO9JZMdo6K-49">
          <mxGeometry y="240" width="430" height="8" as="geometry" />
        </mxCell>
        <mxCell id="4mwLRk9rZ4MO9JZMdo6K-53" style="edgeStyle=orthogonalEdgeStyle;rounded=0;orthogonalLoop=1;jettySize=auto;html=1;" edge="1" parent="1" source="4mwLRk9rZ4MO9JZMdo6K-50" target="4mwLRk9rZ4MO9JZMdo6K-36">
          <mxGeometry relative="1" as="geometry" />
        </mxCell>
        <mxCell id="4mwLRk9rZ4MO9JZMdo6K-55" style="edgeStyle=orthogonalEdgeStyle;rounded=0;orthogonalLoop=1;jettySize=auto;html=1;entryX=1;entryY=0.5;entryDx=0;entryDy=0;" edge="1" parent="1" source="4mwLRk9rZ4MO9JZMdo6K-29" target="4mwLRk9rZ4MO9JZMdo6K-15">
          <mxGeometry relative="1" as="geometry" />
        </mxCell>
      </root>
    </mxGraphModel>
  </diagram>
</mxfile>
